<svg xmlns="http://www.w3.org/2000/svg" viewBox="0 0 403.14 101.91"><defs><style>.cls-1{fill:#282c5c;}.cls-2{font-size:12px;fill:#4f82ad;font-family:SourceHanSerifSC-Medium-GBpc-EUC-H, Source Han Serif SC;letter-spacing:0.2em;}</style></defs><title>tienon_logo</title><g id="图层_2" data-name="图层 2"><g id="图层_1-2" data-name="图层 1"><path class="cls-1" d="M103.74,0c3.34.69,6.74,1.16,10,2.12,13.67,4,21,17,18.4,32-1.29,7.37-4.73,13.43-9.21,18.92-6.54,8-14.38,14.34-22.6,20.15a3.81,3.81,0,0,1-1,.37,4.14,4.14,0,0,1,.43-.84c11.72-14.58,4.35-36.69-14.59-41.82A27.21,27.21,0,0,0,53.51,45.86a7,7,0,0,1-1,1.38c.26-2.13.42-4.28.82-6.37C57.11,20.56,68.9,8.24,86.82,2.23,90.12,1.12,93.62.72,97,0Z"/><path class="cls-1" d="M100.52,96c-13.17,0-24.58-4.87-34.26-14.49a10.1,10.1,0,0,1-.88-1.16,13.14,13.14,0,0,1,1.3.41c4.64,2.13,9.44,2.64,14.48,2.52,4-.1,8,.88,12,1.36a130,130,0,0,0,37.88-1.14c.45-.08.9-.08,1.36-.12a7.6,7.6,0,0,1-.91,1.1A46.69,46.69,0,0,1,100.52,96Z"/><path class="cls-1" d="M148.49,45.87c-.46.91-.72,2.09-1.41,2.68-16.45,14.22-34.45,25.32-54.77,31.76a4.34,4.34,0,0,1-.69.17c-.32,0-.63.07-1,.11a6,6,0,0,1,.76-.67c7.34-4.48,14.89-8.6,22-13.52a113.54,113.54,0,0,0,31.43-32,6.84,6.84,0,0,1,1-1,6.17,6.17,0,0,1,.48,1.16C147,38.23,147.72,41.92,148.49,45.87Z"/><path class="cls-1" d="M88.68,82.56c-.71,0-.88,0-1,0-.49,0-1-.12-1.45-.18a8.06,8.06,0,0,1,1.54-.54c2.83-.42,5.69-.7,8.52-1.22,17.56-3.2,34.06-9.46,49-20.2a10.33,10.33,0,0,1,1.4-.73c-.1.57-.19,1.14-.3,1.71-1.25,6.33-4.55,10.14-10.53,12.12a190.17,190.17,0,0,1-37.19,8C95.11,81.91,91.62,82.24,88.68,82.56Z"/><path d="M4.42,62.5H0V60.06H12.81V62.5H8.36v9.83H4.42Z"/><path d="M15.88,60.06h3.94V72.33H15.88Z"/><path d="M24.13,60.06H34.52V62.5H28.07v2.28h5.48v2.47H28.07v2.61h6.69v2.47H24.13Z"/><path d="M38.54,60.06h4l4.07,5.87,1.61,2.72h.1a30.42,30.42,0,0,1-.52-4.53V60.06h3.74V72.33h-4l-4-5.92-1.6-2.69h-.11a38.21,38.21,0,0,1,.5,4.54v4.07H38.54Z"/><path d="M55.15,66.13c0-4,3-6.3,7.51-6.3s7.5,2.29,7.5,6.3-3,6.43-7.5,6.43S55.15,70.16,55.15,66.13Zm11,0c0-2.37-1.35-3.78-3.5-3.78s-3.48,1.41-3.48,3.78S60.5,70,62.66,70,66.16,68.52,66.16,66.13Z"/><path d="M73.74,60.06h4l4.07,5.87,1.6,2.72h.11A29.15,29.15,0,0,1,83,64.12V60.06h3.74V72.33h-4l-4-5.92-1.6-2.69H77a38.21,38.21,0,0,1,.5,4.54v4.07H73.74Z"/><path d="M183.5,44.82c2.36,9.41,10.55,18.18,27.58,23.1l-.07.77c-4.54,1-7.16,3.65-7.8,8.83C190,70.61,184.9,58.07,182.92,47.45c-2.56,13.5-9.86,23.35-32.51,30l-.45-.9c17.09-8.7,21.95-18.88,23.36-31.74h-21L151.82,43h21.63c.45-5.18.38-10.82.38-17H156l-.51-1.79h18.36v-.07h10.5v.07h8.06l5.06-6.34s5.63,4.23,9.08,7.11c-.19.7-1,1-1.92,1H184.33c-.13,6.14-.19,11.78-.77,17h12.67l5.06-6.46s5.76,4.28,9.21,7.23c-.19.7-1,1-1.92,1Z"/><path d="M271.81,23.89A5,5,0,0,1,269,25.43V66.58c0,6-1.35,9.15-11.07,10-.19-2.88-.51-5-1.41-6.27s-2.11-2.3-5.31-2.88v-.83s6,.38,7.23.38c1,0,1.28-.51,1.28-1.28V54.23H248.78v19.9c0,.58-2.69,2.43-7.43,2.43h-1.66V54.23H229.38c-1.34,8.32-4.92,16.51-14.84,22.52l-.58-.44c6.66-9.79,7.11-22.34,7.11-34.37V18.46L231.5,22H259l4.23-4.86ZM239.69,52.44V38.68h-9.54v3.2a84.77,84.77,0,0,1-.51,10.56Zm-9.54-28.67V36.89h9.54V23.77Zm18.63,0V36.89h10.94V23.77Zm10.94,28.67V38.68H248.78V52.44Z"/><path d="M302,25.94a4.21,4.21,0,0,1-2.62,1.35V61c-.07.64-3.71,2.56-6.59,2.56h-1.29V58.13h-3.64v6.66c0,.89-3,2.75-6.47,2.75h-1.21V20.89l7.93,3.32h2.76l3.71-4.09Zm-10.5,30.4V26h-3.64V56.34ZM332,64.28s4.93,4,7.81,6.78c-.2.7-.9,1-1.8,1H311.94v3c0,.57-2.56,2.43-6.91,2.43h-1.6V43.22a33.42,33.42,0,0,1-3.33,3.58l-.57-.44c3.52-8.77,5.44-21.63,5.89-29.63l11.32,2.94a25.69,25.69,0,0,0-1.28-3l.52-.25c18.75,4.09,8.89,18.11,1.72,11.13a20.36,20.36,0,0,0-.76-7.16,2.54,2.54,0,0,1-2.12.89,76.47,76.47,0,0,1-3.26,8.51l1.28.51h14.4l4.16-5.75s4.8,3.9,7.55,6.52c-.19.71-.9,1-1.79,1H325.77V43.35h.64l3.9-5.63s4.42,3.84,6.91,6.4c-.13.7-.83,1-1.73,1h-9.72V56.66h.64l3.9-5.63s4.42,3.84,6.91,6.4c-.13.7-.83,1-1.73,1h-9.72V70.29h1.92Zm-20.1-32.19V43.35h5.64V32.09Zm5.64,13h-5.64V56.66h5.64Zm-5.64,25.15h5.64V58.45h-5.64Z"/><path d="M403.14,35.16a4.66,4.66,0,0,1-2.81,1.28c-.58,27.13-1.48,34.43-5.19,38a12.14,12.14,0,0,1-8.83,3.2c0-2.88-.13-4.86-.89-6a6.89,6.89,0,0,0-4.36-2.88v-.77c1.67.13,4.16.26,5.38.26a3,3,0,0,0,2.11-.77c2.11-1.92,2.82-10.88,3.26-32.64h-3.32c-.32,20.23-2.5,33.66-20.42,42.56l-.64-.9c10.75-10.3,12.1-23.23,12.16-41.66h-6.08l-.57-1.79h6.65V26.26a1.6,1.6,0,0,1-1.53.77h-7.62V34.9c0,.19-.32.39-.9.58l7,5.18c-.38.58-1,.9-2.36,1.15v7.94c0,.19-1,.64-2.76,1,1.35,1.09,3.08,2.56,4.36,3.71-.2.71-.84,1-1.73,1H362.82v4.54h2.95l3.33-4.41s3.84,3.07,6.14,5.18c-.19.7-.83,1-1.73,1H362.82v3.52c3.84-.25,7.94-.51,12-.83l.06.77c-5.57,2.43-14,5.44-26.88,9.47a2.8,2.8,0,0,1-2,1.47l-3.78-9.72c2.69-.07,7.3-.32,12.87-.64v-4h-10l-.51-1.79h10.5V55.51H344l-.52-1.79h11.72V49.81h-3.08v.52c0,.51-2.43,1.66-6.52,1.66h-1.41V36.31l8.57,3.26h2.44V35.73a14.66,14.66,0,0,1-5.76,1.16H348V27h-5.69l-.45-1.73H348V16.73l10.18.89c-.13.84-.64,1.54-2.37,1.8V25.3h6.72V17l10.24.9c-.13.83-.58,1.54-2.37,1.79V25.3h.32l3.2-4.8s3.52,3.2,5.63,5.44c-.06-2.81-.06-5.76-.06-8.76l11.52,1c-.2,1-1,1.6-2.43,1.85-.07,4.61,0,9-.07,13.06h2.56l4.54-4.54ZM355.15,48V41.37h-3.08V48Zm7.42-21h-6.72v5.76h6.72Zm6.65,8.58a17.5,17.5,0,0,1-5.31.89h-1.09v3.07h2.88Zm-3.32,5.76h-3.08V48h3.08Zm1.79,9.79H365.9V49.81h-3.08v3.91h2.88Z"/><text class="cls-2" transform="translate(0 89.33)">天用唯勤</text><path d="M154,86.1H150.5V84.55h8.78V86.1h-3.47V96.33H154Z"/><path d="M162.11,84.55H164V96.33h-1.86Z"/><path d="M167.86,84.55h7V86.1h-5.11v3.29H174V91h-4.32v3.8H175v1.57h-7.14Z"/><path d="M178.26,84.55h1.9l3.91,6.92L185.3,94h.08c-.1-1.21-.24-2.64-.24-3.92V84.55h1.76V96.33H185l-3.91-6.94-1.23-2.47h-.08c.09,1.22.24,2.58.24,3.86v5.55h-1.76Z"/><path d="M190.16,90.39c0-3.79,2.1-6.06,5.12-6.06s5.14,2.27,5.14,6.06-2.11,6.15-5.14,6.15S190.16,94.19,190.16,90.39Zm8.36,0c0-2.76-1.29-4.45-3.24-4.45s-3.22,1.69-3.22,4.45,1.27,4.53,3.22,4.53S198.52,93.16,198.52,90.39Z"/><path d="M203.66,84.55h1.91l3.9,6.92L210.71,94h.08c-.1-1.21-.24-2.64-.24-3.92V84.55h1.76V96.33H210.4l-3.9-6.94-1.24-2.47h-.08c.1,1.22.24,2.58.24,3.86v5.55h-1.76Z"/><path d="M223,86.1h-3.46V84.55h8.79V86.1h-3.47V96.33H223Z"/><path d="M231.17,84.55h7V86.1H233v3.29h4.33V91H233v3.8h5.29v1.57h-7.14Z"/><path d="M240.93,90.47c0-3.84,2.33-6.14,5.31-6.14a4.54,4.54,0,0,1,3.35,1.49l-1,1.18a3.17,3.17,0,0,0-2.31-1.06c-2,0-3.44,1.7-3.44,4.47s1.31,4.51,3.39,4.51a3.44,3.44,0,0,0,2.61-1.24l1,1.16a4.67,4.67,0,0,1-3.67,1.7C243.2,96.54,240.93,94.33,240.93,90.47Z"/><path d="M252.7,84.55h1.86v4.8h5v-4.8h1.86V96.33H259.6V91h-5v5.36H252.7Z"/><path d="M265.34,84.55h1.91l3.9,6.92L272.39,94h.08c-.1-1.21-.24-2.64-.24-3.92V84.55H274V96.33h-1.91l-3.9-6.94-1.24-2.47h-.08c.1,1.22.24,2.58.24,3.86v5.55h-1.76Z"/><path d="M277.25,90.39c0-3.79,2.09-6.06,5.12-6.06s5.14,2.27,5.14,6.06-2.12,6.15-5.14,6.15S277.25,94.19,277.25,90.39Zm8.35,0c0-2.76-1.28-4.45-3.23-4.45s-3.22,1.69-3.22,4.45,1.27,4.53,3.22,4.53S285.6,93.16,285.6,90.39Z"/><path d="M290.75,84.55h1.86V94.76h5v1.57h-6.84Z"/><path d="M299.29,90.39c0-3.79,2.1-6.06,5.13-6.06s5.13,2.27,5.13,6.06-2.11,6.15-5.13,6.15S299.29,94.19,299.29,90.39Zm8.36,0c0-2.76-1.28-4.45-3.23-4.45s-3.22,1.69-3.22,4.45,1.26,4.53,3.22,4.53S307.65,93.16,307.65,90.39Z"/><path d="M312.16,90.47c0-3.84,2.37-6.14,5.49-6.14a4.67,4.67,0,0,1,3.5,1.49l-1,1.18a3.21,3.21,0,0,0-2.44-1.06c-2.19,0-3.65,1.7-3.65,4.47s1.3,4.51,3.73,4.51a2.93,2.93,0,0,0,1.86-.57V91.58h-2.34V90.06h4v5.1a5.26,5.26,0,0,1-3.73,1.38C314.45,96.54,312.16,94.33,312.16,90.47Z"/><path d="M326.75,91.87l-3.54-7.32h2l1.36,3.12c.37.88.7,1.7,1.1,2.6h.07c.38-.9.77-1.72,1.12-2.6l1.37-3.12h1.94l-3.55,7.32v4.46h-1.86Z"/><path d="M338.22,90.47c0-3.84,2.34-6.14,5.32-6.14a4.51,4.51,0,0,1,3.34,1.49l-1,1.18a3.13,3.13,0,0,0-2.3-1.06c-2,0-3.44,1.7-3.44,4.47s1.31,4.51,3.39,4.51a3.45,3.45,0,0,0,2.61-1.24l1,1.16a4.63,4.63,0,0,1-3.66,1.7C340.5,96.54,338.22,94.33,338.22,90.47Z"/><path d="M348.8,90.39c0-3.79,2.09-6.06,5.12-6.06s5.14,2.27,5.14,6.06-2.11,6.15-5.14,6.15S348.8,94.19,348.8,90.39Zm8.35,0c0-2.76-1.28-4.45-3.23-4.45s-3.22,1.69-3.22,4.45,1.27,4.53,3.22,4.53S357.15,93.16,357.15,90.39Z"/><path d="M361.9,95.26a1.24,1.24,0,1,1,2.47,0,1.24,1.24,0,1,1-2.47,0Z"/><path d="M367.17,98.49a2.48,2.48,0,0,0,1.74-2.19.52.52,0,0,1-.18,0,1.16,1.16,0,0,1-1.23-1.19A1.19,1.19,0,0,1,368.78,94c.9,0,1.43.75,1.43,2a3.75,3.75,0,0,1-2.63,3.6Z"/><path d="M373.44,84.55h1.85V94.76h5v1.57h-6.83Z"/><path d="M383.39,86.1h-3.46V84.55h8.79V86.1h-3.47V96.33h-1.86Z"/><path d="M391.55,84.55h3.06c3.61,0,5.68,2,5.68,5.84s-2.07,5.94-5.59,5.94h-3.15Zm2.93,10.26c2.53,0,3.89-1.49,3.89-4.42s-1.36-4.33-3.89-4.33h-1.07v8.75Z"/></g></g></svg>